<svg width="115" height="115" viewBox="0 0 115 115" fill="none" xmlns="http://www.w3.org/2000/svg">
<path d="M28.7499 47.3655C26.8677 47.9149 25.0519 48.6701 23.3353 49.6176L23.9582 60.4707L13.0332 59.8957C12.0857 61.6123 11.3305 63.4281 10.7811 65.3103L18.8551 72.6176L10.7811 79.8051C11.3218 81.6903 12.0775 83.5071 13.0332 85.2197L23.9582 84.7884L23.4072 95.6655C25.1244 96.6054 26.9403 97.3527 28.8218 97.8936L36.129 89.8197L43.3165 97.8936C45.201 97.3614 47.0178 96.6137 48.7311 95.6655L48.1801 84.7884L59.0572 85.3395C60.0054 83.6262 60.753 81.8093 61.2853 79.9249L53.2113 72.7374L61.2853 65.4301C60.7604 63.5085 60.021 61.6521 59.0811 59.8957L48.204 60.4468L48.7551 49.5936C47.0425 48.6379 45.2257 47.8823 43.3405 47.3416L36.153 55.4155L28.7499 47.3655Z" stroke="#3A0CA3" stroke-width="2.27083" stroke-linecap="round" stroke-linejoin="round"/>
<path d="M36.0573 82.1294C41.2971 82.1294 45.5448 77.8817 45.5448 72.6419C45.5448 67.4021 41.2971 63.1544 36.0573 63.1544C30.8175 63.1544 26.5698 67.4021 26.5698 72.6419C26.5698 77.8817 30.8175 82.1294 36.0573 82.1294Z" stroke="#3A0CA3" stroke-width="2.27083" stroke-linecap="round" stroke-linejoin="round"/>
<path d="M71.6595 17.1063C69.7692 17.6439 67.945 18.3913 66.2209 19.3344L66.7959 30.2115L55.9189 29.6605C54.9707 31.3738 54.223 33.1906 53.6907 35.0751L61.7407 42.2626L53.6907 49.5699C54.2233 51.4925 54.9707 53.349 55.9189 55.1042L66.7959 54.5532L66.2209 65.4063C67.944 66.3578 69.7682 67.1132 71.6595 67.6584L78.847 59.5845L86.0345 67.6584C87.9167 67.1091 89.7325 66.3538 91.4491 65.4063L91.0418 54.5292L101.895 55.0803C102.842 53.3637 103.598 51.5479 104.147 49.6657L96.073 42.3584L104.147 35.1709C103.606 33.2857 102.851 31.4689 101.895 29.7563L91.0418 30.2115L91.5928 19.3344C89.8991 18.3978 88.1074 17.6506 86.2501 17.1063L79.0626 25.1803L71.6595 17.1063Z" stroke="#3A0CA3" stroke-width="2.27083" stroke-linecap="round" stroke-linejoin="round"/>
<path d="M78.9426 51.8457C84.1824 51.8457 88.4301 47.598 88.4301 42.3582C88.4301 37.1184 84.1824 32.8707 78.9426 32.8707C73.7028 32.8707 69.4551 37.1184 69.4551 42.3582C69.4551 47.598 73.7028 51.8457 78.9426 51.8457Z" stroke="#3A0CA3" stroke-width="2.27083" stroke-linecap="round" stroke-linejoin="round"/>
</svg>
