<svg width="6" height="13" viewBox="0 0 6 13" fill="none" xmlns="http://www.w3.org/2000/svg">
<path fill-rule="evenodd" clip-rule="evenodd" d="M0.210062 1.42909L4.32956 6.12014L0.210062 10.8112C-0.0665883 11.1125 -0.0716323 11.5954 0.204745 11.8968C0.481123 12.1981 0.924244 12.1925 1.20062 11.8911L5.78471 6.67046C5.78798 6.66698 5.79207 6.66466 5.79548 6.66089C5.92815 6.51631 5.99414 6.32984 5.99823 6.14165C5.99836 6.13411 6 6.12687 6 6.11962C6 6.11238 5.9985 6.10485 5.99823 6.0976C5.99414 5.9094 5.92801 5.72293 5.79548 5.57835C5.79221 5.57488 5.78825 5.57227 5.78471 5.56879L1.20097 0.348852C0.924592 0.0475019 0.481473 0.0418534 0.205094 0.343202C-0.0715565 0.644552 -0.0662369 1.12756 0.210139 1.42891L0.210062 1.42909Z" fill="white"/>
</svg>
